# xmcd
#
# Track frame offsets:
#	150
#	14562
#	30810
#	45922
#	59812
#	75577
#	93380
#	105080
#	122497
#	140145
#	152690
#	165032
#	173450
#
# Disc length: 2489 seconds
#
# Revision: 0
# Processed by: cddbd v1.5.2PL0 Copyright (c) Steve Scherf et al.
# Submitted via: EasyCDDAExtractor 10.0.2.1
#
DISCID=8909b70d
DTITLE=Marisa Monte - oOo
DYEAR=2000
DGENRE=MPB
TTITLE0=Amor I Love You
TTITLE1=Não Vá Embora
TTITLE2=O Que Me Importa
TTITLE3=Não é Fácil
TTITLE4=Perdão Você
TTITLE5=Tema de Amor
TTITLE6=Abololô
TTITLE7=Para Ver as Meninas
TTITLE8=Cinco Minutos
TTITLE9=Gentileza
TTITLE10=Agua Também é Mar
TTITLE11=Gotas de Luar
TTITLE12=Sou Seu Sabiá
EXTD=YEAR: 2000\n
EXTT0=
EXTT1=
EXTT2=
EXTT3=
EXTT4=
EXTT5=
EXTT6=
EXTT7=
EXTT8=
EXTT9=
EXTT10=
EXTT11=
EXTT12=
PLAYORDER=
